G04 #@! TF.GenerationSoftware,KiCad,Pcbnew,(5.1.2-1)-1*
G04 #@! TF.CreationDate,2019-05-15T12:18:10-07:00*
G04 #@! TF.ProjectId,dice,64696365-2e6b-4696-9361-645f70636258,rev?*
G04 #@! TF.SameCoordinates,Original*
G04 #@! TF.FileFunction,Profile,NP*
%FSLAX46Y46*%
G04 Gerber Fmt 4.6, Leading zero omitted, Abs format (unit mm)*
G04 Created by KiCad (PCBNEW (5.1.2-1)-1) date 2019-05-15 12:18:10*
%MOMM*%
%LPD*%
G04 APERTURE LIST*
%ADD10C,0.200000*%
G04 APERTURE END LIST*
D10*
X113984136Y-90295166D02*
G75*
G02X113734136Y-90545166I0J-250000D01*
G01*
X113984136Y-89245166D02*
X113984136Y-90295166D01*
X113984136Y-89245166D02*
X116384136Y-89245166D01*
X116384136Y-89245166D02*
X116384136Y-90295166D01*
X116634136Y-90545166D02*
G75*
G02X116384136Y-90295166I-250000J0D01*
G01*
X116634136Y-90545166D02*
X117234136Y-90545166D01*
X126234142Y-93545166D02*
G75*
G02X126484142Y-93295166I0J250000D01*
G01*
X126484146Y-95795166D02*
X127534142Y-95795166D01*
X127534142Y-95795166D02*
X127534142Y-96796350D01*
X126481638Y-96796350D02*
X127534142Y-96796350D01*
X126231638Y-97046350D02*
G75*
G02X126481638Y-96796350I0J250000D01*
G01*
X126231638Y-97046350D02*
X126231638Y-99046350D01*
X126481638Y-99296350D02*
G75*
G02X126231638Y-99046350I-250000J0D01*
G01*
X126481638Y-99296350D02*
X127534142Y-99296350D01*
X127534142Y-99296350D02*
X127534142Y-100296350D01*
X126481638Y-100296350D02*
X127534142Y-100296350D01*
X126231638Y-100546350D02*
G75*
G02X126481638Y-100296350I0J250000D01*
G01*
X126231638Y-100546350D02*
X126231638Y-102546350D01*
X126481638Y-102796350D02*
G75*
G02X126231638Y-102546350I-250000J0D01*
G01*
X126481638Y-102796350D02*
X127534142Y-102796350D01*
X127534142Y-105546350D02*
X127534142Y-102796350D01*
X123731638Y-105546350D02*
X127534142Y-105546350D01*
X120981638Y-105796350D02*
X120981638Y-106846350D01*
X120731638Y-105546350D02*
G75*
G02X120981638Y-105796350I250000J0D01*
G01*
X120233647Y-105546350D02*
X120731638Y-105546350D01*
X119983647Y-105796350D02*
G75*
G02X120233647Y-105546350I0J250000D01*
G01*
X119983647Y-105796350D02*
X119983647Y-106846350D01*
X117483647Y-106846350D02*
X119983647Y-106846350D01*
X117483647Y-105796350D02*
X117483647Y-106846350D01*
X117233647Y-105546350D02*
G75*
G02X117483647Y-105796350I250000J0D01*
G01*
X123734136Y-90545166D02*
G75*
G02X123484136Y-90295166I-250000J0D01*
G01*
X123734136Y-90545166D02*
X127534142Y-90545166D01*
X116694238Y-93714208D02*
G75*
G03X116694238Y-93714208I-1250000J0D01*
G01*
X116633647Y-105546350D02*
X117233647Y-105546350D01*
X116383647Y-105796350D02*
G75*
G02X116633647Y-105546350I0J250000D01*
G01*
X116383647Y-105796350D02*
X116383647Y-106846350D01*
X122102022Y-93714208D02*
G75*
G03X122102022Y-93714208I-1250000J0D01*
G01*
X117484136Y-89245166D02*
X119984136Y-89245166D01*
X119984136Y-89245166D02*
X119984136Y-90295166D01*
X126484142Y-93295166D02*
X127534142Y-93295166D01*
X113983647Y-106846350D02*
X116383647Y-106846350D01*
X113983647Y-105796350D02*
X113983647Y-106846350D01*
X113733647Y-105546350D02*
G75*
G02X113983647Y-105796350I250000J0D01*
G01*
X111231638Y-105546350D02*
X113733647Y-105546350D01*
X109931638Y-105546350D02*
X111231638Y-105546350D01*
X109931638Y-102796349D02*
X109931638Y-105546350D01*
X110981638Y-102796349D02*
X109931638Y-102796349D01*
X111231782Y-102546349D02*
G75*
G02X110981638Y-102796349I-144J-250000D01*
G01*
X111232930Y-100546349D02*
X111231781Y-102546349D01*
X110983073Y-100296350D02*
G75*
G02X111232930Y-100546349I250000J1D01*
G01*
X110983073Y-100296349D02*
X109933073Y-100296349D01*
X109933647Y-99296349D02*
X109933073Y-100296349D01*
X110983073Y-99296349D02*
X109933647Y-99296349D01*
X111233055Y-99046349D02*
G75*
G02X110983073Y-99296349I18J-250000D01*
G01*
X111232907Y-97046349D02*
X111233055Y-99046349D01*
X126484146Y-95795165D02*
G75*
G02X126234145Y-95545166I-250000J-1D01*
G01*
X126234143Y-93545166D02*
X126234145Y-95545166D01*
X110981634Y-93295166D02*
X109931638Y-93295166D01*
X109931638Y-90545166D02*
X109931638Y-93295166D01*
X109931638Y-90545166D02*
X113734136Y-90545166D01*
X120234136Y-90545166D02*
G75*
G02X119984136Y-90295166I-250000J0D01*
G01*
X120234136Y-90545166D02*
X120734136Y-90545166D01*
X122227785Y-101662881D02*
G75*
G03X122227785Y-101662881I-1250000J0D01*
G01*
X117484136Y-90295166D02*
G75*
G02X117234136Y-90545166I0J-250000D01*
G01*
X117484136Y-89245166D02*
X117484136Y-90295166D01*
X123736934Y-97764246D02*
G75*
G03X123736934Y-97764246I-1250000J0D01*
G01*
X120984136Y-89245166D02*
X123484136Y-89245166D01*
X123484136Y-89245166D02*
X123484136Y-90295166D01*
X127534142Y-90545166D02*
X127534142Y-93295166D01*
X110982888Y-96796350D02*
G75*
G02X111232907Y-97046349I250000J1D01*
G01*
X110982888Y-96796349D02*
X109932888Y-96796349D01*
X109931638Y-95796349D02*
X109932888Y-96796349D01*
X110981638Y-95796349D02*
X109931638Y-95796349D01*
X111231638Y-95546349D02*
G75*
G02X110981638Y-95796349I0J-250000D01*
G01*
X111231635Y-93545166D02*
X111231637Y-95546349D01*
X110981634Y-93295167D02*
G75*
G02X111231635Y-93545166I250000J1D01*
G01*
X120984136Y-90295166D02*
G75*
G02X120734136Y-90545166I0J-250000D01*
G01*
X120984136Y-89245166D02*
X120984136Y-90295166D01*
X123481638Y-105796350D02*
G75*
G02X123731638Y-105546350I0J250000D01*
G01*
X123481638Y-105796350D02*
X123481638Y-106846350D01*
X120981638Y-106846350D02*
X123481638Y-106846350D01*
X118895080Y-97701365D02*
G75*
G03X118895080Y-97701365I-1250000J0D01*
G01*
X116820000Y-101600000D02*
G75*
G03X116820000Y-101600000I-1250000J0D01*
G01*
X91652501Y-106300000D02*
X94052501Y-106300000D01*
X91652501Y-105250000D02*
X91652501Y-106300000D01*
X97552501Y-88800001D02*
X97552501Y-89850001D01*
X88650000Y-95250000D02*
X87600000Y-95250000D01*
X101302501Y-90100001D02*
X103902501Y-90100001D01*
X101302501Y-90100001D02*
G75*
G02X101052501Y-89850001I-250000J0D01*
G01*
X95152501Y-88800001D02*
X95152501Y-89850001D01*
X88651250Y-96350000D02*
X87601250Y-96350000D01*
X88900966Y-96100000D02*
G75*
G02X88651250Y-96350000I284J-250000D01*
G01*
X88650000Y-92850000D02*
X87600000Y-92850000D01*
X94175850Y-93987490D02*
G75*
G03X94175850Y-93987490I-1250000J0D01*
G01*
X88902501Y-102500000D02*
X88902501Y-105000000D01*
X88652501Y-102250000D02*
G75*
G02X88902501Y-102500000I250000J0D01*
G01*
X105202501Y-92850000D02*
X105202501Y-95250000D01*
X104152501Y-95250000D02*
X105202501Y-95250000D01*
X103902501Y-95500000D02*
G75*
G02X104152501Y-95250000I0J250000D01*
G01*
X103902501Y-95500000D02*
X103902501Y-96100000D01*
X104152501Y-96350000D02*
G75*
G02X103902501Y-96100000I-250000J0D01*
G01*
X104152501Y-96350000D02*
X105202501Y-96350000D01*
X88651250Y-98750000D02*
X87601250Y-98750000D01*
X87601250Y-98750000D02*
X87601250Y-96350000D01*
X94250358Y-101072590D02*
G75*
G03X94250358Y-101072590I-1250000J0D01*
G01*
X100690340Y-93923430D02*
G75*
G03X100690340Y-93923430I-1250000J0D01*
G01*
X94052501Y-88800001D02*
X94052501Y-89850001D01*
X103902501Y-90100001D02*
X103902501Y-92600000D01*
X104152501Y-92850000D02*
G75*
G02X103902501Y-92600000I-250000J0D01*
G01*
X91402501Y-105000000D02*
G75*
G02X91652501Y-105250000I250000J0D01*
G01*
X88902501Y-105000000D02*
X91402501Y-105000000D01*
X88901535Y-99000000D02*
X88902217Y-99600000D01*
X88651250Y-98750001D02*
G75*
G02X88901535Y-99000000I250000J1D01*
G01*
X94302501Y-90100001D02*
X94902501Y-90100001D01*
X91652501Y-88800001D02*
X94052501Y-88800001D01*
X94302501Y-90100001D02*
G75*
G02X94052501Y-89850001I-250000J0D01*
G01*
X87600000Y-95250000D02*
X87600000Y-92850000D01*
X97648723Y-97549832D02*
G75*
G03X97648723Y-97549832I-1250000J0D01*
G01*
X101302501Y-105000000D02*
X103902501Y-105000000D01*
X101052501Y-105250000D02*
G75*
G02X101302501Y-105000000I0J250000D01*
G01*
X101052501Y-105250000D02*
X101052501Y-106300000D01*
X98652501Y-106300000D02*
X101052501Y-106300000D01*
X98652501Y-105250000D02*
X98652501Y-106300000D01*
X98402501Y-105000000D02*
G75*
G02X98652501Y-105250000I250000J0D01*
G01*
X97802501Y-105000000D02*
X98402501Y-105000000D01*
X97552501Y-105250000D02*
G75*
G02X97802501Y-105000000I0J250000D01*
G01*
X97552501Y-105250000D02*
X97552501Y-106300000D01*
X103902501Y-99000000D02*
X103902501Y-99600000D01*
X104152501Y-99850000D02*
G75*
G02X103902501Y-99600000I-250000J0D01*
G01*
X104152501Y-99850000D02*
X105202501Y-99850000D01*
X105202501Y-99850000D02*
X105202501Y-102250000D01*
X104152501Y-102250000D02*
X105202501Y-102250000D01*
X103902501Y-102500000D02*
G75*
G02X104152501Y-102250000I0J250000D01*
G01*
X103902501Y-102500000D02*
X103902501Y-105000000D01*
X101052501Y-88800001D02*
X101052501Y-89850001D01*
X88652501Y-102250000D02*
X87602501Y-102250000D01*
X87602501Y-102250000D02*
X87602501Y-99850000D01*
X104152501Y-92850000D02*
X105202501Y-92850000D01*
X105202501Y-96350000D02*
X105202501Y-98750000D01*
X104152501Y-98750000D02*
X105202501Y-98750000D01*
X103902501Y-99000000D02*
G75*
G02X104152501Y-98750000I0J250000D01*
G01*
X88900284Y-95500000D02*
X88900966Y-96100000D01*
X88652501Y-99850000D02*
X87602501Y-99850000D01*
X88902217Y-99600000D02*
G75*
G02X88652501Y-99850000I284J-250000D01*
G01*
X88902501Y-90100001D02*
X88900227Y-92600000D01*
X88900227Y-92600000D02*
G75*
G02X88650000Y-92850000I-227J-250000D01*
G01*
X97802501Y-90100001D02*
X98402501Y-90100001D01*
X98652501Y-88800001D02*
X101052501Y-88800001D01*
X95152501Y-89850001D02*
G75*
G02X94902501Y-90100001I0J-250000D01*
G01*
X100825861Y-101039908D02*
G75*
G03X100825861Y-101039908I-1250000J0D01*
G01*
X95152501Y-88800001D02*
X97552501Y-88800001D01*
X97802501Y-90100001D02*
G75*
G02X97552501Y-89850001I-250000J0D01*
G01*
X95152501Y-106300000D02*
X97552501Y-106300000D01*
X95152501Y-105250000D02*
X95152501Y-106300000D01*
X91652501Y-89850001D02*
G75*
G02X91402501Y-90100001I0J-250000D01*
G01*
X94902501Y-105000000D02*
G75*
G02X95152501Y-105250000I250000J0D01*
G01*
X94302501Y-105000000D02*
X94902501Y-105000000D01*
X94052501Y-105250000D02*
G75*
G02X94302501Y-105000000I0J250000D01*
G01*
X94052501Y-105250000D02*
X94052501Y-106300000D01*
X91652501Y-88800001D02*
X91652501Y-89850001D01*
X88902501Y-90100001D02*
X91402501Y-90100001D01*
X98652501Y-88800001D02*
X98652501Y-89850001D01*
X98652501Y-89850001D02*
G75*
G02X98402501Y-90100001I0J-250000D01*
G01*
X88650000Y-95250000D02*
G75*
G02X88900284Y-95500000I250000J0D01*
G01*
X82560000Y-101560000D02*
X83610000Y-101560000D01*
X83610000Y-101560000D02*
X83610000Y-104310465D01*
X83610000Y-104310465D02*
X82560000Y-104310465D01*
X82313534Y-104560440D02*
G75*
G02X82560000Y-104310465I-3534J249975D01*
G01*
X75994557Y-93012568D02*
G75*
G03X75994557Y-93012568I-1250000J0D01*
G01*
X67310000Y-101310000D02*
X67310000Y-99310000D01*
X67060000Y-98060232D02*
X66010000Y-98060232D01*
X67310000Y-97810232D02*
X67310000Y-95810232D01*
X79560503Y-104560465D02*
X79560503Y-105610465D01*
X79310503Y-104310465D02*
G75*
G02X79560503Y-104560465I250000J0D01*
G01*
X77310000Y-89310466D02*
X79310000Y-89310466D01*
X79560000Y-89060466D02*
G75*
G02X79310000Y-89310466I0J-250000D01*
G01*
X79560000Y-88010466D02*
X79560000Y-89060466D01*
X79560000Y-88010466D02*
X82310000Y-88010466D01*
X82310000Y-88010466D02*
X82310000Y-89310466D01*
X83610000Y-89310466D02*
X82310000Y-89310466D01*
X83610000Y-92060465D02*
X83610000Y-89310466D01*
X70310000Y-104310465D02*
X72310503Y-104310465D01*
X67310000Y-97810232D02*
G75*
G02X67060000Y-98060232I0J-250000D01*
G01*
X70060000Y-105610465D02*
X67310492Y-105610465D01*
X66010000Y-98060232D02*
X66010000Y-99060000D01*
X73003406Y-96826285D02*
G75*
G03X73003406Y-96826285I-1250000J0D01*
G01*
X67310000Y-101310000D02*
G75*
G02X67060000Y-101560000I0J-250000D01*
G01*
X67310000Y-94310465D02*
G75*
G02X67060000Y-94560465I0J-250000D01*
G01*
X77060000Y-104560465D02*
X77060000Y-105610465D01*
X76060503Y-105610465D02*
X77060000Y-105610465D01*
X72560503Y-105610465D02*
X73560000Y-105610465D01*
X82560000Y-94560000D02*
X83610000Y-94560000D01*
X83610000Y-94560000D02*
X83610000Y-95560465D01*
X82560000Y-95560465D02*
X83610000Y-95560465D01*
X82310000Y-95810465D02*
G75*
G02X82560000Y-95560465I0J250000D01*
G01*
X67310000Y-88010466D02*
X70060000Y-88010466D01*
X70060000Y-88010466D02*
X70060000Y-89060466D01*
X70310000Y-89310466D02*
G75*
G02X70060000Y-89060466I-250000J0D01*
G01*
X82310000Y-99310464D02*
X82310000Y-101310000D01*
X82560000Y-101560000D02*
G75*
G02X82310000Y-101310000I-250000J0D01*
G01*
X72560503Y-104560465D02*
X72560503Y-105610465D01*
X67060000Y-95560232D02*
G75*
G02X67310000Y-95810232I250000J0D01*
G01*
X70310000Y-89310466D02*
X72310000Y-89310466D01*
X72560000Y-89060466D02*
G75*
G02X72310000Y-89310466I0J-250000D01*
G01*
X72560000Y-88010466D02*
X72560000Y-89060466D01*
X73560000Y-88010466D02*
X72560000Y-88010466D01*
X72310503Y-104310465D02*
G75*
G02X72560503Y-104560465I250000J0D01*
G01*
X73560000Y-104560465D02*
X73560000Y-105610465D01*
X67060000Y-104310464D02*
G75*
G02X67310094Y-104560465I250000J-1D01*
G01*
X76060000Y-88010466D02*
X76060000Y-89060466D01*
X76060000Y-88010466D02*
X77060000Y-88010466D01*
X77060000Y-88010466D02*
X77060000Y-89060466D01*
X77310000Y-89310466D02*
G75*
G02X77060000Y-89060466I-250000J0D01*
G01*
X67060000Y-104310465D02*
X66010000Y-104310465D01*
X82310000Y-95810465D02*
X82310000Y-97810000D01*
X82560000Y-98060000D02*
G75*
G02X82310000Y-97810000I-250000J0D01*
G01*
X67060000Y-99060000D02*
X66010000Y-99060000D01*
X77310000Y-104310465D02*
X79310503Y-104310465D01*
X77060000Y-104560465D02*
G75*
G02X77310000Y-104310465I0J250000D01*
G01*
X67060000Y-101560000D02*
X66010000Y-101560000D01*
X73810000Y-104310465D02*
X75810503Y-104310465D01*
X73560000Y-104560465D02*
G75*
G02X73810000Y-104310465I0J250000D01*
G01*
X73560000Y-88010466D02*
X73560000Y-89060466D01*
X73810000Y-89310466D02*
G75*
G02X73560000Y-89060466I-250000J0D01*
G01*
X73810000Y-89310466D02*
X75810000Y-89310466D01*
X76060000Y-89060466D02*
G75*
G02X75810000Y-89310466I0J-250000D01*
G01*
X82560000Y-98060000D02*
X83610000Y-98060000D01*
X83610000Y-98060000D02*
X83610000Y-99060464D01*
X70060000Y-104560465D02*
G75*
G02X70310000Y-104310465I0J250000D01*
G01*
X67310492Y-105610465D02*
X67310094Y-104560465D01*
X82328381Y-105610465D02*
X82313534Y-104560440D01*
X79560503Y-105610465D02*
X82328381Y-105610465D01*
X82560000Y-99060464D02*
X83610000Y-99060464D01*
X82310000Y-99310464D02*
G75*
G02X82560000Y-99060464I0J250000D01*
G01*
X67060000Y-94560465D02*
X66010000Y-94560465D01*
X76060503Y-104560465D02*
X76060503Y-105610465D01*
X75810503Y-104310465D02*
G75*
G02X76060503Y-104560465I250000J0D01*
G01*
X67310000Y-92310465D02*
X67310000Y-94310465D01*
X67060000Y-92060465D02*
G75*
G02X67310000Y-92310465I250000J0D01*
G01*
X79060487Y-96751506D02*
G75*
G03X79060487Y-96751506I-1250000J0D01*
G01*
X82560000Y-92060465D02*
X83610000Y-92060465D01*
X82310000Y-92310465D02*
G75*
G02X82560000Y-92060465I0J250000D01*
G01*
X82310000Y-92310465D02*
X82310000Y-94310000D01*
X82560000Y-94560000D02*
G75*
G02X82310000Y-94310000I-250000J0D01*
G01*
X67060000Y-95560232D02*
X66010000Y-95560232D01*
X70060000Y-104560465D02*
X70060000Y-105610465D01*
X76069335Y-100490445D02*
G75*
G03X76069335Y-100490445I-1250000J0D01*
G01*
X67060000Y-92060465D02*
X66010000Y-92060465D01*
X66010000Y-92060465D02*
X66010000Y-89310466D01*
X66010000Y-89310466D02*
X67060000Y-89310466D01*
X67310000Y-89060466D02*
G75*
G02X67060000Y-89310466I0J-250000D01*
G01*
X67310000Y-89060466D02*
X67310000Y-88010466D01*
X66010000Y-94560465D02*
X66010000Y-95560232D01*
X66010000Y-101560000D02*
X66010000Y-104310465D01*
X67060000Y-99060000D02*
G75*
G02X67310000Y-99310000I250000J0D01*
G01*
X120440000Y-67280000D02*
X122940000Y-67280000D01*
X116940000Y-67280000D02*
X116940000Y-68330000D01*
X116940000Y-67280000D02*
X119440000Y-67280000D01*
X125940010Y-73830000D02*
G75*
G02X125690009Y-73580001I-250000J-1D01*
G01*
X119440000Y-67280000D02*
X119440000Y-68330000D01*
X119690000Y-68580000D02*
G75*
G02X119440000Y-68330000I-250000J0D01*
G01*
X120297983Y-72577361D02*
G75*
G03X120297983Y-72577361I-1250000J0D01*
G01*
X123190000Y-68580000D02*
G75*
G02X122940000Y-68330000I-250000J0D01*
G01*
X125690007Y-71580000D02*
X125690009Y-73580001D01*
X125940006Y-71330000D02*
X126990006Y-71330000D01*
X126990006Y-68580000D02*
X126990006Y-71330000D01*
X125940010Y-73830001D02*
X126990006Y-73830001D01*
X126990006Y-73830001D02*
X126990006Y-74831185D01*
X125937502Y-74831185D02*
X126990006Y-74831185D01*
X125687502Y-75081185D02*
G75*
G02X125937502Y-74831185I0J250000D01*
G01*
X125687502Y-75081185D02*
X125687502Y-77081185D01*
X125937502Y-77331185D02*
G75*
G02X125687502Y-77081185I-250000J0D01*
G01*
X125937502Y-77331185D02*
X126990006Y-77331185D01*
X126990006Y-77331185D02*
X126990006Y-78331185D01*
X125937502Y-78331185D02*
X126990006Y-78331185D01*
X125687502Y-78581185D02*
G75*
G02X125937502Y-78331185I0J250000D01*
G01*
X125687502Y-78581185D02*
X125687502Y-80581185D01*
X125937502Y-80831185D02*
G75*
G02X125687502Y-80581185I-250000J0D01*
G01*
X125937502Y-80831185D02*
X126990006Y-80831185D01*
X126990006Y-83581185D02*
X126990006Y-80831185D01*
X123187502Y-83581185D02*
X126990006Y-83581185D01*
X122937502Y-83831185D02*
G75*
G02X123187502Y-83581185I0J250000D01*
G01*
X122937502Y-83831185D02*
X122937502Y-84881185D01*
X120437502Y-84881185D02*
X122937502Y-84881185D01*
X116090000Y-68580000D02*
X116690000Y-68580000D01*
X116940000Y-68330000D02*
G75*
G02X116690000Y-68580000I0J-250000D01*
G01*
X122940000Y-67280000D02*
X122940000Y-68330000D01*
X116089511Y-83581185D02*
X116689511Y-83581185D01*
X115839511Y-83831185D02*
G75*
G02X116089511Y-83581185I0J250000D01*
G01*
X115839511Y-83831185D02*
X115839511Y-84881185D01*
X113439511Y-84881185D02*
X115839511Y-84881185D01*
X116365154Y-77001962D02*
G75*
G03X116365154Y-77001962I-1250000J0D01*
G01*
X119690000Y-68580000D02*
X120190000Y-68580000D01*
X120440000Y-68330000D02*
G75*
G02X120190000Y-68580000I0J-250000D01*
G01*
X116939511Y-84881185D02*
X119439511Y-84881185D01*
X116939511Y-83831185D02*
X116939511Y-84881185D01*
X116689511Y-83581185D02*
G75*
G02X116939511Y-83831185I250000J0D01*
G01*
X122184420Y-78802600D02*
G75*
G03X122184420Y-78802600I-1250000J0D01*
G01*
X110687646Y-80581184D02*
G75*
G02X110437502Y-80831184I-144J-250000D01*
G01*
X110688794Y-78581184D02*
X110687645Y-80581184D01*
X110438937Y-78331185D02*
G75*
G02X110688794Y-78581184I250000J1D01*
G01*
X110438937Y-78331184D02*
X109388937Y-78331184D01*
X109389511Y-77331184D02*
X109388937Y-78331184D01*
X110438937Y-77331184D02*
X109389511Y-77331184D01*
X110688919Y-77081184D02*
G75*
G02X110438937Y-77331184I18J-250000D01*
G01*
X110688771Y-75081184D02*
X110688919Y-77081184D01*
X110438752Y-74831185D02*
G75*
G02X110688771Y-75081184I250000J1D01*
G01*
X110438752Y-74831184D02*
X109388752Y-74831184D01*
X109387502Y-73831184D02*
X109388752Y-74831184D01*
X110437502Y-73831184D02*
X109387502Y-73831184D01*
X110687502Y-73581184D02*
G75*
G02X110437502Y-73831184I0J-250000D01*
G01*
X110687499Y-71580000D02*
X110687501Y-73581184D01*
X110437498Y-71330001D02*
G75*
G02X110687499Y-71580000I250000J1D01*
G01*
X110437498Y-71330000D02*
X109387502Y-71330000D01*
X109387502Y-68580000D02*
X109387502Y-71330000D01*
X109387502Y-68580000D02*
X113190000Y-68580000D01*
X113440000Y-68330000D02*
G75*
G02X113190000Y-68580000I0J-250000D01*
G01*
X120440000Y-67280000D02*
X120440000Y-68330000D01*
X113440000Y-67280000D02*
X113440000Y-68330000D01*
X113440000Y-67280000D02*
X115840000Y-67280000D01*
X115840000Y-67280000D02*
X115840000Y-68330000D01*
X116090000Y-68580000D02*
G75*
G02X115840000Y-68330000I-250000J0D01*
G01*
X113439511Y-83831185D02*
X113439511Y-84881185D01*
X113189511Y-83581185D02*
G75*
G02X113439511Y-83831185I250000J0D01*
G01*
X110687502Y-83581185D02*
X113189511Y-83581185D01*
X109387502Y-83581185D02*
X110687502Y-83581185D01*
X109387502Y-80831184D02*
X109387502Y-83581185D01*
X110437502Y-80831184D02*
X109387502Y-80831184D01*
X125690006Y-71580000D02*
G75*
G02X125940006Y-71330000I0J250000D01*
G01*
X120437502Y-83831185D02*
X120437502Y-84881185D01*
X120187502Y-83581185D02*
G75*
G02X120437502Y-83831185I250000J0D01*
G01*
X119689511Y-83581185D02*
X120187502Y-83581185D01*
X119439511Y-83831185D02*
G75*
G02X119689511Y-83581185I0J250000D01*
G01*
X119439511Y-83831185D02*
X119439511Y-84881185D01*
X123190000Y-68580000D02*
X126990006Y-68580000D01*
X98690000Y-68790000D02*
G75*
G02X98440000Y-68540000I-250000J0D01*
G01*
X98690000Y-68790000D02*
X100690000Y-68790000D01*
X100940000Y-68540000D02*
G75*
G02X100690000Y-68790000I0J-250000D01*
G01*
X100940000Y-67490000D02*
X100940000Y-68540000D01*
X88440000Y-77539767D02*
X87390000Y-77539767D01*
X88690000Y-80789535D02*
X88690000Y-78789535D01*
X88440000Y-78539535D02*
G75*
G02X88690000Y-78789535I250000J0D01*
G01*
X93940503Y-84040000D02*
X93940503Y-85090000D01*
X93690503Y-83790000D02*
G75*
G02X93940503Y-84040000I250000J0D01*
G01*
X87390000Y-74040000D02*
X87390000Y-75039767D01*
X88440000Y-74040000D02*
X87390000Y-74040000D01*
X100940503Y-84040000D02*
X100940503Y-85090000D01*
X100690503Y-83790000D02*
G75*
G02X100940503Y-84040000I250000J0D01*
G01*
X94940000Y-84040000D02*
X94940000Y-85090000D01*
X93940503Y-85090000D02*
X94940000Y-85090000D01*
X88440000Y-75039767D02*
X87390000Y-75039767D01*
X88440000Y-78539535D02*
X87390000Y-78539535D01*
X104990000Y-83790000D02*
X103940000Y-83790000D01*
X103693534Y-84039975D02*
G75*
G02X103940000Y-83790000I-3534J249975D01*
G01*
X100940000Y-67490000D02*
X103690000Y-67490000D01*
X103690000Y-67490000D02*
X103690000Y-68790000D01*
X104990000Y-68790000D02*
X103690000Y-68790000D01*
X104990000Y-71540000D02*
X104990000Y-68790000D01*
X87390000Y-77539767D02*
X87390000Y-78539535D01*
X97440503Y-84040000D02*
X97440503Y-85090000D01*
X97190503Y-83790000D02*
G75*
G02X97440503Y-84040000I250000J0D01*
G01*
X98440000Y-84040000D02*
X98440000Y-85090000D01*
X97440503Y-85090000D02*
X98440000Y-85090000D01*
X95212767Y-74144109D02*
G75*
G03X95212767Y-74144109I-1250000J0D01*
G01*
X88690000Y-73790000D02*
G75*
G02X88440000Y-74040000I0J-250000D01*
G01*
X88690492Y-85090000D02*
X88690094Y-84040000D01*
X88440000Y-83789999D02*
G75*
G02X88690094Y-84040000I250000J-1D01*
G01*
X103940000Y-75040000D02*
X104990000Y-75040000D01*
X103690000Y-75290000D02*
G75*
G02X103940000Y-75040000I0J250000D01*
G01*
X103690000Y-75290000D02*
X103690000Y-77289535D01*
X103940000Y-77539535D02*
G75*
G02X103690000Y-77289535I-250000J0D01*
G01*
X103940000Y-77539535D02*
X104990000Y-77539535D01*
X104990000Y-77539535D02*
X104990000Y-78539999D01*
X98690000Y-83790000D02*
X100690503Y-83790000D01*
X98440000Y-84040000D02*
G75*
G02X98690000Y-83790000I0J250000D01*
G01*
X99523442Y-78250642D02*
G75*
G03X99523442Y-78250642I-1250000J0D01*
G01*
X103940000Y-71540000D02*
X104990000Y-71540000D01*
X103690000Y-71790000D02*
G75*
G02X103940000Y-71540000I0J250000D01*
G01*
X103690000Y-71790000D02*
X103690000Y-73789535D01*
X103940000Y-74039535D02*
G75*
G02X103690000Y-73789535I-250000J0D01*
G01*
X103940000Y-74039535D02*
X104990000Y-74039535D01*
X104990000Y-74039535D02*
X104990000Y-75040000D01*
X95190000Y-83790000D02*
X97190503Y-83790000D01*
X94940000Y-84040000D02*
G75*
G02X95190000Y-83790000I0J250000D01*
G01*
X88690000Y-77289767D02*
G75*
G02X88440000Y-77539767I0J-250000D01*
G01*
X103940000Y-78539999D02*
X104990000Y-78539999D01*
X103690000Y-78789999D02*
G75*
G02X103940000Y-78539999I0J250000D01*
G01*
X103690000Y-78789999D02*
X103690000Y-80789535D01*
X88690000Y-71790000D02*
X88690000Y-73790000D01*
X88440000Y-71540000D02*
G75*
G02X88690000Y-71790000I250000J0D01*
G01*
X88440000Y-71540000D02*
X87390000Y-71540000D01*
X87390000Y-71540000D02*
X87390000Y-68790000D01*
X87390000Y-68790000D02*
X88440000Y-68790000D01*
X88690000Y-68540000D02*
G75*
G02X88440000Y-68790000I0J-250000D01*
G01*
X88690000Y-68540000D02*
X88690000Y-67490000D01*
X88690000Y-67490000D02*
X91440000Y-67490000D01*
X91440000Y-67490000D02*
X91440000Y-68540000D01*
X91690000Y-68790000D02*
G75*
G02X91440000Y-68540000I-250000J0D01*
G01*
X91690000Y-68790000D02*
X93690000Y-68790000D01*
X93940000Y-68540000D02*
G75*
G02X93690000Y-68790000I0J-250000D01*
G01*
X93940000Y-67490000D02*
X93940000Y-68540000D01*
X94940000Y-67490000D02*
X93940000Y-67490000D01*
X94940000Y-67490000D02*
X94940000Y-68540000D01*
X95190000Y-68790000D02*
G75*
G02X94940000Y-68540000I-250000J0D01*
G01*
X95190000Y-68790000D02*
X97190000Y-68790000D01*
X97440000Y-68540000D02*
G75*
G02X97190000Y-68790000I0J-250000D01*
G01*
X97440000Y-67490000D02*
X97440000Y-68540000D01*
X97440000Y-67490000D02*
X98440000Y-67490000D01*
X98440000Y-67490000D02*
X98440000Y-68540000D01*
X103708381Y-85090000D02*
X103693534Y-84039975D01*
X100940503Y-85090000D02*
X103708381Y-85090000D01*
X103940000Y-81039535D02*
G75*
G02X103690000Y-80789535I-250000J0D01*
G01*
X103940000Y-81039535D02*
X104990000Y-81039535D01*
X104990000Y-81039535D02*
X104990000Y-83790000D01*
X88440000Y-75039767D02*
G75*
G02X88690000Y-75289767I250000J0D01*
G01*
X88440000Y-81039535D02*
X87390000Y-81039535D01*
X88690000Y-80789535D02*
G75*
G02X88440000Y-81039535I0J-250000D01*
G01*
X88690000Y-77289767D02*
X88690000Y-75289767D01*
X88440000Y-83790000D02*
X87390000Y-83790000D01*
X87390000Y-81039535D02*
X87390000Y-83790000D01*
X91690000Y-83790000D02*
X93690503Y-83790000D01*
X91440000Y-84040000D02*
G75*
G02X91690000Y-83790000I0J250000D01*
G01*
X91440000Y-84040000D02*
X91440000Y-85090000D01*
X91440000Y-85090000D02*
X88690492Y-85090000D01*
X71740000Y-67280000D02*
X71740000Y-68330000D01*
X69090000Y-83480000D02*
G75*
G02X69340000Y-83730000I250000J0D01*
G01*
X66590000Y-83480000D02*
X69090000Y-83480000D01*
X66590000Y-80980000D02*
X66590000Y-83480000D01*
X66340000Y-80730000D02*
G75*
G02X66590000Y-80980000I250000J0D01*
G01*
X66340000Y-80730000D02*
X65290000Y-80730000D01*
X65290000Y-80730000D02*
X65290000Y-78330000D01*
X66340000Y-78330000D02*
X65290000Y-78330000D01*
X66589716Y-78080000D02*
G75*
G02X66340000Y-78330000I284J-250000D01*
G01*
X75490000Y-68580000D02*
X76090000Y-68580000D01*
X72840000Y-84780000D02*
X75240000Y-84780000D01*
X72840000Y-83730000D02*
X72840000Y-84780000D01*
X72590000Y-83480000D02*
G75*
G02X72840000Y-83730000I250000J0D01*
G01*
X71990000Y-83480000D02*
X72590000Y-83480000D01*
X81840000Y-71330000D02*
X82890000Y-71330000D01*
X82890000Y-71330000D02*
X82890000Y-73730000D01*
X81840000Y-73730000D02*
X82890000Y-73730000D01*
X81590000Y-73980000D02*
G75*
G02X81840000Y-73730000I0J250000D01*
G01*
X81590000Y-73980000D02*
X81590000Y-74580000D01*
X81840000Y-74830000D02*
G75*
G02X81590000Y-74580000I-250000J0D01*
G01*
X81840000Y-74830000D02*
X82890000Y-74830000D01*
X82890000Y-74830000D02*
X82890000Y-77230000D01*
X81840000Y-77230000D02*
X82890000Y-77230000D01*
X81590000Y-77480000D02*
G75*
G02X81840000Y-77230000I0J250000D01*
G01*
X81590000Y-77480000D02*
X81590000Y-78080000D01*
X81840000Y-78330000D02*
G75*
G02X81590000Y-78080000I-250000J0D01*
G01*
X81840000Y-78330000D02*
X82890000Y-78330000D01*
X82890000Y-78330000D02*
X82890000Y-80730000D01*
X81840000Y-80730000D02*
X82890000Y-80730000D01*
X81590000Y-80980000D02*
G75*
G02X81840000Y-80730000I0J250000D01*
G01*
X81590000Y-80980000D02*
X81590000Y-83480000D01*
X78990000Y-83480000D02*
X81590000Y-83480000D01*
X78740000Y-83730000D02*
G75*
G02X78990000Y-83480000I0J250000D01*
G01*
X78740000Y-83730000D02*
X78740000Y-84780000D01*
X76340000Y-84780000D02*
X78740000Y-84780000D01*
X76340000Y-83730000D02*
X76340000Y-84780000D01*
X76090000Y-83480000D02*
G75*
G02X76340000Y-83730000I250000J0D01*
G01*
X75490000Y-83480000D02*
X76090000Y-83480000D01*
X75240000Y-83730000D02*
G75*
G02X75490000Y-83480000I0J250000D01*
G01*
X75240000Y-83730000D02*
X75240000Y-84780000D01*
X81840000Y-71330000D02*
G75*
G02X81590000Y-71080000I-250000J0D01*
G01*
X78990000Y-68580000D02*
X81590000Y-68580000D01*
X75240000Y-67280000D02*
X75240000Y-68330000D01*
X75490000Y-68580000D02*
G75*
G02X75240000Y-68330000I-250000J0D01*
G01*
X71990000Y-68580000D02*
G75*
G02X71740000Y-68330000I-250000J0D01*
G01*
X65288749Y-77230000D02*
X65288749Y-74830000D01*
X66338749Y-74830000D02*
X65288749Y-74830000D01*
X66588465Y-74580000D02*
G75*
G02X66338749Y-74830000I284J-250000D01*
G01*
X66587783Y-73980000D02*
X66588465Y-74580000D01*
X78740000Y-67280000D02*
X78740000Y-68330000D01*
X76340000Y-67280000D02*
X76340000Y-68330000D01*
X65287499Y-73730000D02*
X65287499Y-71330000D01*
X66337499Y-71330000D02*
X65287499Y-71330000D01*
X66590000Y-68580000D02*
X69090000Y-68580000D01*
X76340000Y-67280000D02*
X78740000Y-67280000D01*
X71990000Y-68580000D02*
X72590000Y-68580000D01*
X72840000Y-67280000D02*
X75240000Y-67280000D01*
X69340000Y-68330000D02*
G75*
G02X69090000Y-68580000I0J-250000D01*
G01*
X66587726Y-71080000D02*
G75*
G02X66337499Y-71330000I-227J-250000D01*
G01*
X66590000Y-68580000D02*
X66587726Y-71080000D01*
X72840000Y-67280000D02*
X72840000Y-68330000D01*
X72840000Y-68330000D02*
G75*
G02X72590000Y-68580000I0J-250000D01*
G01*
X71740000Y-83730000D02*
G75*
G02X71990000Y-83480000I0J250000D01*
G01*
X71740000Y-83730000D02*
X71740000Y-84780000D01*
X69340000Y-84780000D02*
X71740000Y-84780000D01*
X69340000Y-83730000D02*
X69340000Y-84780000D01*
X66337499Y-73730000D02*
G75*
G02X66587783Y-73980000I250000J0D01*
G01*
X66337499Y-73730000D02*
X65287499Y-73730000D01*
X69340000Y-67280000D02*
X69340000Y-68330000D01*
X66589034Y-77480000D02*
X66589716Y-78080000D01*
X66338749Y-77230001D02*
G75*
G02X66589034Y-77480000I250000J1D01*
G01*
X66338749Y-77230000D02*
X65288749Y-77230000D01*
X75336222Y-76029832D02*
G75*
G03X75336222Y-76029832I-1250000J0D01*
G01*
X69340000Y-67280000D02*
X71740000Y-67280000D01*
X76340000Y-68330000D02*
G75*
G02X76090000Y-68580000I0J-250000D01*
G01*
X81590000Y-68580000D02*
X81590000Y-71080000D01*
X78990000Y-68580000D02*
G75*
G02X78740000Y-68330000I-250000J0D01*
G01*
M02*
