G04 #@! TF.GenerationSoftware,KiCad,Pcbnew,(5.1.2-1)-1*
G04 #@! TF.CreationDate,2019-05-14T22:23:47-07:00*
G04 #@! TF.ProjectId,dice,64696365-2e6b-4696-9361-645f70636258,rev?*
G04 #@! TF.SameCoordinates,Original*
G04 #@! TF.FileFunction,Profile,NP*
%FSLAX46Y46*%
G04 Gerber Fmt 4.6, Leading zero omitted, Abs format (unit mm)*
G04 Created by KiCad (PCBNEW (5.1.2-1)-1) date 2019-05-14 22:23:47*
%MOMM*%
%LPD*%
G04 APERTURE LIST*
%ADD10C,0.200000*%
G04 APERTURE END LIST*
D10*
X73050000Y-117239542D02*
X74620000Y-117239542D01*
X96150000Y-138859957D02*
X113080787Y-138859957D01*
X134620000Y-117320786D02*
X136190000Y-117320786D01*
X134620000Y-100390000D02*
X134620000Y-95790786D01*
X134620000Y-138850786D02*
X136190000Y-138850786D01*
X134620000Y-100390000D02*
X136190000Y-100390000D01*
X73050000Y-100308756D02*
X74620000Y-100308756D01*
X117680000Y-138859957D02*
X117680000Y-140429957D01*
X136190000Y-138850786D02*
X136190000Y-121920000D01*
X74620000Y-78859957D02*
X91560000Y-78859957D01*
X91560000Y-77289957D02*
X91560000Y-78859957D01*
X134620000Y-95790786D02*
X136190000Y-95790786D01*
X113090000Y-77289957D02*
X117689214Y-77289957D01*
X73050000Y-117239542D02*
X73050000Y-100308756D01*
X134620000Y-138859957D02*
X134620000Y-138850786D01*
X96159214Y-78859957D02*
X113090000Y-78859957D01*
X113090000Y-77289957D02*
X113090000Y-78859957D01*
X134620000Y-78860000D02*
X136190000Y-78860000D01*
X91550787Y-140429957D02*
X96150000Y-140429957D01*
X113080787Y-140429957D02*
X117680000Y-140429957D01*
X73050000Y-138769542D02*
X74620000Y-138769542D01*
X74620000Y-138859957D02*
X74620000Y-138769542D01*
X117504999Y-120186579D02*
G75*
G03X117504999Y-120186579I-4999016J0D01*
G01*
X99479074Y-108848222D02*
G75*
G03X99479074Y-108848222I-4999016J0D01*
G01*
X136190000Y-95790786D02*
X136190000Y-78860000D01*
X73050000Y-121838756D02*
X74620000Y-121838756D01*
X74620000Y-100308756D02*
X74620000Y-95709542D01*
X117680000Y-138859957D02*
X134620000Y-138859957D01*
X74620000Y-138859957D02*
X91550787Y-138859957D01*
X91560000Y-77289957D02*
X96159214Y-77289957D01*
X96159214Y-77289957D02*
X96159214Y-78859957D01*
X73050000Y-95709542D02*
X73050000Y-78778756D01*
X117493816Y-96643612D02*
G75*
G03X117493816Y-96643612I-4999016J0D01*
G01*
X134620000Y-121920000D02*
X134620000Y-117320786D01*
X73050000Y-95709542D02*
X74620000Y-95709542D01*
X96150000Y-138859957D02*
X96150000Y-140429957D01*
X136190000Y-117320786D02*
X136190000Y-100390000D01*
X74620000Y-121838756D02*
X74620000Y-117239542D01*
X117689214Y-78859957D02*
X134620000Y-78859957D01*
X113080787Y-138859957D02*
X113080787Y-140429957D01*
X73050000Y-138769542D02*
X73050000Y-121838756D01*
X117689214Y-77289957D02*
X117689214Y-78859957D01*
X73050000Y-78778756D02*
X74620000Y-78778756D01*
X74620000Y-78859957D02*
X74620000Y-78778756D01*
X91550787Y-138859957D02*
X91550787Y-140429957D01*
X134620000Y-121920000D02*
X136190000Y-121920000D01*
M02*
